<?xml version="1.0" encoding="UTF-8"?>
<svg id="Layer_1" data-name="Layer 1" xmlns="http://www.w3.org/2000/svg" xmlns:xlink="http://www.w3.org/1999/xlink" viewBox="0 0 300 53">
  <defs>
    <style>
      .cls-1 {
        fill: none;
        stroke: #fff;
        stroke-miterlimit: 10;
        stroke-width: .42px;
      }

      .cls-2 {
        fill: url(#linear-gradient);
      }

      .cls-2, .cls-3, .cls-4, .cls-5, .cls-6, .cls-7, .cls-8, .cls-9, .cls-10 {
        stroke-width: 0px;
      }

      .cls-3 {
        fill: #121212;
        opacity: .25;
      }

      .cls-4 {
        fill: url(#linear-gradient-4);
      }

      .cls-5 {
        fill: url(#linear-gradient-2);
      }

      .cls-6 {
        fill: url(#linear-gradient-3);
      }

      .cls-7 {
        fill: url(#linear-gradient-5);
      }

      .cls-8 {
        fill: url(#linear-gradient-6);
      }

      .cls-9 {
        fill: #bc0033;
      }

      .cls-10 {
        fill: #fff;
      }
    </style>
    <linearGradient id="linear-gradient" x1="17.74" y1="32.59" x2="9.2" y2="32.59" gradientUnits="userSpaceOnUse">
      <stop offset=".16" stop-color="#fff"/>
      <stop offset=".33" stop-color="#d8d9da"/>
      <stop offset=".49" stop-color="#babcbd"/>
      <stop offset=".58" stop-color="#afb1b3"/>
      <stop offset=".61" stop-color="#b5b7b9"/>
      <stop offset=".87" stop-color="#eaeaeb"/>
      <stop offset="1" stop-color="#fff"/>
    </linearGradient>
    <linearGradient id="linear-gradient-2" x1="9.12" y1="28.78" x2="15.49" y2="28.78" xlink:href="#linear-gradient"/>
    <linearGradient id="linear-gradient-3" x1="14.19" y1="20.13" x2="23.83" y2="20.13" xlink:href="#linear-gradient"/>
    <linearGradient id="linear-gradient-4" x1="16.59" y1="23.62" x2="23.66" y2="23.62" xlink:href="#linear-gradient"/>
    <linearGradient id="linear-gradient-5" x1="16.33" y1="19.72" x2="24.87" y2="19.72" gradientUnits="userSpaceOnUse">
      <stop offset="0" stop-color="#bc0033"/>
      <stop offset=".19" stop-color="#b80032"/>
      <stop offset=".34" stop-color="#ae002f"/>
      <stop offset=".47" stop-color="#9e002a"/>
      <stop offset=".6" stop-color="#860024"/>
      <stop offset=".72" stop-color="#68001c"/>
      <stop offset=".84" stop-color="#430012"/>
      <stop offset=".95" stop-color="#170006"/>
      <stop offset="1" stop-color="#000"/>
    </linearGradient>
    <linearGradient id="linear-gradient-6" x1="19.76" y1="32.59" x2="11.23" y2="32.59" xlink:href="#linear-gradient-5"/>
  </defs>
  <g>
    <path class="cls-10" d="m35.36,37.33c.01-.84.22-1.29.71-1.57.52-.3,1.1-.38,2.77-.38,2.18,0,2.86.11,3.43.56.47.38.61.81.61,1.99v3.96h-.96v-.87c-.33.81-.81.96-3.01.96s-2.73-.07-3.19-.41c-.47-.33-.65-.76-.65-1.6,0-.79.18-1.29.56-1.55.46-.31,1.23-.42,3.12-.42,1.51,0,2.09.05,2.47.2.37.15.54.33.71.68v-.68c0-1.86-.24-2.02-3.05-2.02-2.13,0-2.46.15-2.47,1.14h-1.03Zm.69,2.69c0,.56.22.91.64,1.02.38.11.84.14,2.24.14,1.28,0,1.84-.04,2.22-.18.54-.18.77-.5.77-1.06,0-.42-.18-.71-.53-.9-.3-.15-.98-.22-2.37-.22-2.54,0-2.97.18-2.97,1.19Z"/>
    <path class="cls-10" d="m44.25,35.47l2.51,5.67,2.12-5.67h1.47l2.12,5.67,2.51-5.67h1.02l-2.86,6.42h-1.37l-2.16-5.74-2.17,5.74h-1.36l-2.88-6.42h1.06Z"/>
    <path class="cls-10" d="m56.35,37.33c.01-.84.22-1.29.71-1.57.52-.3,1.1-.38,2.77-.38,2.18,0,2.86.11,3.43.56.47.38.61.81.61,1.99v3.96h-.96v-.87c-.33.81-.81.96-3.01.96s-2.73-.07-3.19-.41c-.47-.33-.65-.76-.65-1.6,0-.79.18-1.29.56-1.55.46-.31,1.23-.42,3.12-.42,1.51,0,2.09.05,2.47.2.37.15.54.33.71.68v-.68c0-1.86-.24-2.02-3.05-2.02-2.13,0-2.46.15-2.47,1.14h-1.03Zm.69,2.69c0,.56.22.91.64,1.02.38.11.84.14,2.24.14,1.28,0,1.84-.04,2.22-.18.54-.18.77-.5.77-1.06,0-.42-.18-.71-.53-.9-.3-.15-.98-.22-2.37-.22-2.54,0-2.97.18-2.97,1.19Z"/>
    <path class="cls-10" d="m65.19,35.47h.96v1.26c.35-1.09.94-1.36,2.92-1.36,2.22,0,2.86.56,2.86,2.47v.38h-.96v-.34c0-1.38-.39-1.7-2.16-1.7-1.93,0-2.66.53-2.66,1.93v3.77h-.96v-6.42Z"/>
    <path class="cls-10" d="m73.59,38.86c0,1.1.08,1.41.41,1.76.42.45.91.54,2.71.54,2.28,0,2.85-.23,2.98-1.21h.99c-.04.58-.2.96-.54,1.29-.54.54-1.45.73-3.49.73-1.86,0-2.77-.18-3.3-.64-.56-.49-.79-1.28-.79-2.66s.23-2.18.79-2.67c.53-.46,1.44-.64,3.28-.64,2.16,0,3.04.23,3.55.95.38.52.52,1.15.5,2.54h-7.11Zm6.09-.79c-.01-.52-.05-.77-.19-1.04-.37-.68-.9-.84-2.85-.84s-2.51.16-2.86.84c-.14.26-.18.5-.19,1.04h6.09Z"/>
    <path class="cls-10" d="m81.8,35.47h.96v1.28c.42-1.17,1.1-1.45,3.43-1.45,1.38,0,2.09.14,2.6.53.52.39.72.95.72,2.02v4.04h-.96v-3.99c0-1.38-.47-1.7-2.63-1.7-2.31,0-3.16.52-3.16,1.91v3.77h-.96v-6.42Z"/>
    <path class="cls-10" d="m91.69,38.86c0,1.1.08,1.41.41,1.76.42.45.91.54,2.71.54,2.28,0,2.85-.23,2.98-1.21h.99c-.04.58-.2.96-.54,1.29-.54.54-1.45.73-3.49.73-1.86,0-2.77-.18-3.3-.64-.56-.49-.79-1.28-.79-2.66s.23-2.18.79-2.67c.53-.46,1.44-.64,3.28-.64,2.16,0,3.04.23,3.55.95.38.52.52,1.15.5,2.54h-7.11Zm6.09-.79c-.01-.52-.05-.77-.19-1.04-.37-.68-.9-.84-2.85-.84s-2.51.16-2.86.84c-.14.26-.18.5-.19,1.04h6.09Z"/>
    <path class="cls-10" d="m106.53,37.14c0-.79-.43-.95-2.66-.95-2.63,0-3.09.16-3.09,1.09,0,.42.14.65.45.77.26.11.66.12,2.47.14,2.41.01,2.79.05,3.32.33.5.26.71.68.71,1.52,0,.92-.26,1.41-.88,1.67-.57.23-1.21.28-3.17.28-2.16,0-2.84-.08-3.32-.39-.52-.34-.68-.73-.68-1.71v-.16h.99v.16c0,.65.05.83.34.99.35.23,1.04.3,2.92.3,2.48,0,2.79-.12,2.79-1.1,0-.47-.1-.71-.34-.84-.35-.19-.39-.2-2.73-.22-2.74-.03-2.81-.03-3.28-.33-.41-.24-.6-.71-.6-1.41,0-.76.24-1.29.73-1.52.56-.28,1.32-.38,3.05-.38,2.22,0,2.9.09,3.43.47.37.26.52.66.52,1.33v.11h-.96v-.15Z"/>
    <path class="cls-10" d="m115.44,37.14c0-.79-.43-.95-2.66-.95-2.63,0-3.09.16-3.09,1.09,0,.42.14.65.45.77.26.11.67.12,2.47.14,2.41.01,2.79.05,3.32.33.5.26.71.68.71,1.52,0,.92-.26,1.41-.88,1.67-.57.23-1.21.28-3.17.28-2.16,0-2.84-.08-3.32-.39-.52-.34-.68-.73-.68-1.71v-.16h.99v.16c0,.65.05.83.34.99.35.23,1.04.3,2.92.3,2.48,0,2.79-.12,2.79-1.1,0-.47-.1-.71-.34-.84-.35-.19-.39-.2-2.73-.22-2.74-.03-2.81-.03-3.28-.33-.41-.24-.6-.71-.6-1.41,0-.76.24-1.29.73-1.52.56-.28,1.32-.38,3.05-.38,2.22,0,2.9.09,3.43.47.37.26.52.66.52,1.33v.11h-.96v-.15Z"/>
  </g>
  <g>
    <path class="cls-10" d="m57.83,12.45l7.61,7.61,7.37-7.61h2.83l-9.17,9.52v6.92h-2.11v-6.92l-9.38-9.52h2.85Z"/>
    <path class="cls-10" d="m95.27,13.8c.72,1.01.66,3.8.45,4.37-.43,1.21-1.42,1.44-2.44,1.68.64.12,2.07.37,2.81,1.42.62.9.53,4.64.08,5.48-1.09,2.13-3.67,2.13-5.6,2.13h-12.75V12.45h12.68c1.54,0,3.61-.16,4.76,1.35Zm-5.54,5.42c1.74,0,3.14.12,3.82-.96.29-.41.18-2.73-.02-3.04-.57-.86-1.62-.96-3.69-.96h-9.91v4.97h9.81Zm.96,7.86c1.01,0,2.77.14,3.53-1.09.35-.6.29-3.39-.04-3.9-.68-1.13-2.71-1.07-4.29-1.07h-9.98v6.05h10.78Z"/>
    <path class="cls-10" d="m115.73,12.45v1.81h-13.81v5.27h13.24v1.72h-13.24v5.83h13.87v1.81h-15.99V12.45h15.93Z"/>
    <path class="cls-10" d="m131.57,12.45c.92,0,4.02-.06,5.15,2.03.45.86.64,4.86.06,5.71-.57.9-1.23,1.15-2.3,1.35,2.91.78,2.65,2.59,2.65,4.88v2.46h-2.09v-2.07c0-1.01.08-3.14-.55-3.8-.8-.84-2.54-.66-3.51-.66h-9.87v6.53h-2.11V12.45h12.58Zm-1.17,8.13c1.99,0,3.57.12,4.35-1.13.41-.64.35-3.45,0-4-.74-1.33-2.71-1.19-3.69-1.19h-9.95v6.32h9.3Z"/>
    <path class="cls-9" d="m156.73,17.27c0-.78-.02-1.66-.53-2.2-.55-.6-1.07-.82-3.14-.82h-6.67c-1.01,0-2.71-.06-3.47,1.35-.25.43-.31,2.55,0,3.02.66,1.11,2.32,1.11,3.86,1.11h6.65c1.93,0,4.15,0,5.32,1.97.62,1.01.62,4.08.04,5.13-1.23,2.24-3.74,2.05-5.97,2.05h-7c-1.4,0-3.59,0-4.7-1.62-.64-.96-.57-1.95-.57-3.47h2.05c0,.33-.06,2.05.51,2.65.64.7,1.68.64,2.59.64h6.12c1.77,0,4.27.12,5.05-1.21.27-.47.31-2.67,0-3.16-.76-1.23-1.66-1.07-3.61-1.07h-6.44c-2.07,0-4.72-.06-5.83-2.05-.62-1.09-.64-3.94,0-5.03,1.23-2.05,3.45-2.11,6.03-2.11h6.69c1.74,0,3.1.31,4.19,1.48.84.9.9,1.91.9,3.35h-2.05Z"/>
    <path class="cls-9" d="m178.53,12.45v1.81h-13.81v5.27h13.24v1.72h-13.24v5.83h13.87v1.81h-15.99V12.45h15.93Z"/>
    <path class="cls-9" d="m199.09,17.85c0-.39.04-2.18-.64-2.85-.62-.62-1.5-.74-2.59-.74h-7c-1.58,0-3.28-.08-4.17.84-.92.96-.8,2.71-.8,3.8v3.16c0,1.79-.04,3.28.86,4.19,1.01.96,3.53.84,4.37.84h6.53c1.21,0,2.63-.08,3.28-1.21.35-.6.33-1.68.33-2.71h1.99c0,1.03.14,3.26-.9,4.39-1.17,1.27-3.02,1.33-4.7,1.33h-7.02c-1.56,0-3.96.18-5.5-1.35-1.29-1.31-1.35-3.49-1.35-5.34v-3.49c0-1.35-.06-3.57,1.23-4.91,1.4-1.38,3.49-1.35,5.56-1.35h6.96c1.33.06,3.76,0,4.97,1.91.45.74.49,2.26.45,3.49h-1.87Z"/>
    <path class="cls-9" d="m206.72,12.45v10.71c0,1.48-.06,2.96.57,3.45.7.53,1.85.47,3.47.47h6.67c1.56,0,2.98.08,3.71-.64.62-.64.53-2.2.53-3.61v-10.39h2.11v10.94c0,1.74.14,3.3-.9,4.33-1.21,1.17-2.89,1.17-4.58,1.17h-7.78c-1.77,0-3.69.18-4.91-1.11-1.17-1.27-1.01-2.81-1.01-4.39v-10.94h2.09Z"/>
    <path class="cls-9" d="m239.74,12.45c.92,0,4.02-.06,5.15,2.03.45.86.64,4.86.06,5.71-.57.9-1.23,1.15-2.3,1.35,2.91.78,2.65,2.59,2.65,4.88v2.46h-2.09v-2.07c0-1.01.08-3.14-.55-3.8-.8-.84-2.54-.66-3.51-.66h-9.87v6.53h-2.11V12.45h12.58Zm-1.17,8.13c1.99,0,3.57.12,4.35-1.13.41-.64.35-3.45,0-4-.74-1.33-2.71-1.19-3.69-1.19h-9.95v6.32h9.3Z"/>
    <path class="cls-9" d="m250.91,12.45v16.44h-2.09V12.45h2.09Z"/>
    <path class="cls-9" d="m271.39,12.45v1.81h-8.11v14.63h-2.11v-14.63h-8.25v-1.81h18.47Z"/>
    <path class="cls-9" d="m274.86,12.45l7.61,7.61,7.37-7.61h2.83l-9.17,9.52v6.92h-2.11v-6.92l-9.38-9.52h2.85Z"/>
  </g>
  <path class="cls-10" d="m52.15,16.15c0-.39.04-.5-.64-1.18-.62-.62-1.5-.74-2.59-.74h-7.02c-1.59,0-3.29-.08-4.18.84-.65.68-.78,1.73-.8,2.68,0,.41,0,.8,0,1.12v3.17c0,.51,0,1,.01,1.46.04,1.14.2,2.09.85,2.74,1.01.97,3.54.84,4.38.84h6.55c1.21,0,2.63-.08,3.29-1.21.35-.6.33,0,.33-1.04h2c0,1.03.14,1.59-.91,2.72-1.17,1.28-3.03,1.34-4.71,1.34h-7.04c-1.56,0-3.97.19-5.52-1.36-1.3-1.32-1.36-3.5-1.36-5.35v-3.5c0-.31,0-.67,0-1.05.04-1.28.23-2.84,1.23-3.87,1.4-1.38,3.5-1.36,5.58-1.36h6.98c1.34.06,3.77,0,4.98,1.91.45.74.49.58.45,1.82h-1.87Z"/>
  <g>
    <path class="cls-2" d="m9.94,27.34c-.06.03.06.26,0,.3-.7.41-.95,1.31-.56,2.03l3.89,7.38c.47.89,1.39,1.45,2.4,1.45h2.06l-6.19-11.8-1.61.64Z"/>
    <path class="cls-5" d="m9.44,29.91c-.42-.78-.44-1.71-.03-2.5l1.62-3.19c.47-.89,1.39-1.45,2.4-1.45h2.06l-3,5.81c-.34.73-.8,2.01-.8,3.65,0,1.06.2,1.93.4,2.56l-2.65-4.89Z"/>
    <path class="cls-6" d="m22.91,25.65c.08-.03-.08-.33,0-.37.87-.51,1.17-1.62.69-2.51l-3.89-7.15c-.58-1.11-1.73-1.8-2.97-1.8h-2.55l6.73,12.62,1.99-.8Z"/>
    <path class="cls-4" d="m23.1,22.17c.48.88.79,1.29.34,2.18l-1.83,3.59c-.53,1.01-1.57,1.63-2.7,1.63h-2.32l3.38-6.54c.38-.82.9-2.27.9-4.11,0-1.19-.28-.55-.51-1.26l2.74,4.51Z"/>
    <path class="cls-7" d="m24.13,24.98c.06-.03-.06-.26,0-.3.7-.41.95-1.31.56-2.03l-3.89-7.38c-.47-.89-1.39-1.45-2.4-1.45h-2.06l6.19,11.8,1.61-.64Z"/>
    <path class="cls-3" d="m23.17,25.48c.32-.07.26-.85.26-.85l-4.45-8.41c-.47-.89-1.08-1.61-1.6-1.87l-1.05-.53,6.19,11.8.66-.14Z"/>
    <path class="cls-9" d="m24.63,22.41c.42.78.44,1.71.03,2.5l-1.62,3.19c-.47.89-1.39,1.45-2.4,1.45h-2.06l3-5.81c.34-.73.8-2.01.8-3.65,0-1.06-.2-1.93-.4-2.56l2.65,4.89Z"/>
    <path class="cls-8" d="m11.96,27.34c-.06.03.06.26,0,.3-.7.41-.95,1.31-.56,2.03l3.89,7.38c.47.89,1.39,1.45,2.4,1.45h2.06l-6.19-11.8-1.61.64Z"/>
    <path class="cls-3" d="m12.92,26.84c-.32.07-.26.85-.26.85l4.45,8.41c.47.89,1.08,1.61,1.6,1.87l1.05.53-6.19-11.8-.66.14Z"/>
    <path class="cls-9" d="m11.47,29.91c-.42-.78-.44-1.71-.03-2.5l1.62-3.19c.47-.89,1.39-1.45,2.4-1.45h2.06l-3,5.81c-.34.73-.8,2.01-.8,3.65,0,1.06.2,1.93.4,2.56l-2.65-4.89Z"/>
    <path class="cls-1" d="m10.91,11.02h12.54c1.97,0,3.58,2.44,3.58,5.42v19.01c0,2.98-1.61,5.42-3.58,5.42h-12.54c-1.97,0-3.58-2.44-3.58-5.42m3.58-24.43c-1.97,0-3.58,2.44-3.58,5.42v2.93m0,12.03v-10.51m0,12.96v-.63"/>
  </g>
</svg>