<svg xmlns="http://www.w3.org/2000/svg" width="100%" viewBox="0 0 1250 221" height="150" xmlns:v="https://vecta.io/nano"><path fill="#fff" d="M915 222H1V1h1250v221H915M63.477 161.584c1.531-.637 3.062-1.275 5.254-1.469l14.905 1.71-.589-1.86s.051-.031-.048-.761l-11.009-21.038c-1.981-3.425-3.963-6.85-5.999-11.004-1.05-2.384-2.1-4.767-2.994-7.886L74.942 94.72c-4.695.352-8.12.609-12.458.638-4.503-.664-8.835-.494-13.179 2.909-3.323 2.521-4.394 5.845-4.368 10.001.051 8.437-.481 16.877-.435 25.314.008 1.471 1.666 2.932 2.619 5.111 1.274 2.441 2.548 4.881 3.945 8.03l8.236 12.972c1.233.439 2.466.877 4.176 1.889m7.604-81.891c.973 1.769 1.947 3.538 3.01 6.016 1.288 2.447 2.576 4.895 3.966 8.038 2.757 3.941 3.435 7.43 1.383 12.563-2.126 5.318-1.419 11.774-1.853 17.74-.015.205 1.022.486 2.155.697.39.026.78.052 1.683.273.18-.033.36-.065 1.415-.059 2.104-.195 4.3-.07 6.295-.643 6.572-1.886 15.771-15.084 15.814-22.693.015-2.56-.003-5.408-1.054-7.629-2.604-5.502-5.812-10.717-8.891-16.778l-8.172-14.928c-2.088-1.367-4.092-3.697-6.283-3.888-3.748-.327-8.031-2.075-12.017 2.072-.172 4.072-.706 8.174-.372 12.203.18 2.171 1.847 4.219 2.922 7.015M609.69 92l36.492-.048c4.389-.05 7.426 1.772 8.635 5.794 2.62 8.717-2.189 15.156-11.281 15.227l-39.992.015c-4.17-.01-7.234-3.019-7.523-7.344-.118-1.766-.019-3.546-.019-5.366h-9.674c-2.349 14.312 5.591 21.776 19.483 21.731 13.33-.044 26.691.543 39.983-.171 12.327-.662 17.043-3.565 18.775-14.193 2.119-13.003-.679-24.432-18.686-24.622-11.996-.126-24.005.259-35.987-.167-4.616-.164-10.096.328-12.944-5.024-3.922-7.37.938-16.51 9.341-16.742 12.488-.345 24.998-.294 37.487.035 3.786.099 7.926 1.165 9.169 5.833 1.81 6.796 2.488 7.201 9.921 5.318.801-6.313-.449-12.395-6.026-15.616-4.428-2.557-9.945-4.308-15.03-4.44-12.902-.333-25.836.357-38.751.813-6.958.246-13.487 2.756-15.656 9.61-2.511 7.935-3.381 16.351 3.204 23.559 5.04 5.518 11.893 4.496 19.081 5.796M957 111.477V95l45.031-.055c9.943-.144 11.34 3.285 11.91 11.906.325 4.922.059 9.883.059 14.872h10.228c-1.694-10.859 4.068-23.152-8.979-31.17 6.308-1.362 7.992-5.665 8.28-10.618.481-8.264 1.732-16.971-5.48-23.259-4.907-4.278-11.418-4.468-17.52-4.585-14.478-.278-28.965-.089-43.448-.089h-9.8v69.694H957v-10.217M725.5 61h19.166v-8.659h-66.316v69.309h67.454v-8.636h-57.569V89.956h54.502v-8.069H688.3V61H725.5m87.956 52c-10.662 0-21.324.016-31.986-.005-9.202-.018-13.445-4.274-13.465-13.491l-.001-25.989c.013-7.627 4.36-12.379 11.928-12.47l39.981.043c4.377.08 8.38 1.61 9.157 6.965.368 2.533.918 5.041 1.411 7.698h8.519c0-2.537.11-4.844-.02-7.137-.472-8.335-4.772-13.734-12.669-15.403-3.666-.775-7.489-1.192-11.233-1.145l-38.755.844c-11.781-.056-17.833 8.589-18.231 18.181-.414 9.979-.731 20.039.064 29.971 1.08 13.501 5.143 20.137 21.6 20.824 13.471.563 26.986.227 40.477.035 3.345-.047 6.784-.73 9.992-1.726 8.544-2.654 11.29-11.302 9.134-22.84h-8.259c.154 12.734-3.456 16.503-15.665 15.649-.332-.023-.666-.003-1.98-.003M853 85.5c0 6.661-.203 13.33.048 19.982.379 10.063 5.812 16.098 15.642 16.388 16.139.477 32.336.759 48.444-.097 10.296-.547 17.32-3.764 16.924-17.185-.294-9.983-.058-19.982-.058-29.974V52.293h-10l-.003 51.174c-.004 6.86-2.655 9.523-9.486 9.529l-42.465.003c-7.263-.002-9.014-1.682-9.034-8.926L863 60.609v-8.31h-10V85.5m303.501-9.5l14.847 15.995c1.04 1.181 1.55 3.193 1.581 4.835.155 8.276.071 16.557.071 24.888h10l.113-25.687c.065-2.034 1.049-4.489 2.444-5.96l33.566-34.751c.734-.758 1.31-1.67 2.346-3.011-7.629-.695-14.326-1.491-19.079 5.648-2.347 3.524-5.581 6.486-8.571 9.548l-15.963 15.953c-8.663-8.698-17.588-16.581-25.146-25.608-5.45-6.509-11.558-6.223-19.841-5.491L1156.501 76m-102.489-16.672c1.462.557 2.918 1.577 4.388 1.597l30.751.074v60.669h10.101V60.697h32.523v-8.449h-77.774l.01 7.08m-7.011.238v-7.257h-9.711v69.379H1047V59.566z"/><path d="M609.214 92c-6.712-1.3-13.565-.279-18.605-5.796-6.585-7.208-5.714-15.624-3.204-23.559 2.169-6.854 8.698-9.364 15.656-9.61 12.915-.456 25.849-1.146 38.751-.813 5.085.131 10.601 1.882 15.03 4.44 5.577 3.221 6.827 9.303 6.026 15.616-7.433 1.883-8.111 1.478-9.921-5.318-1.243-4.668-5.382-5.733-9.169-5.833-12.489-.328-24.999-.38-37.487-.035-8.402.232-13.263 9.371-9.341 16.742 2.848 5.352 8.328 4.859 12.944 5.024 11.982.427 23.991.041 35.987.167 18.007.19 20.805 11.618 18.686 24.622-1.732 10.628-6.448 13.531-18.775 14.193-13.292.714-26.653.127-39.983.171-13.892.045-21.832-7.419-19.483-21.731H596c0 1.82-.098 3.6.019 5.366.288 4.325 3.353 7.334 7.523 7.344l39.992-.015c9.092-.071 13.901-6.51 11.281-15.227-1.209-4.022-4.245-5.844-8.635-5.794L609.214 92zM957 111.971v9.723h-9.719V52h9.8l43.448.089c6.101.117 12.613.307 17.52 4.585 7.212 6.288 5.96 14.996 5.48 23.259-.288 4.953-1.972 9.255-8.28 10.618 13.047 8.018 7.285 20.311 8.979 31.17H1014c0-4.989.266-9.95-.059-14.872-.57-8.621-1.967-12.049-11.91-11.906L957 95v16.971M965.547 86l37.451-.152c2.968-.086 6.909-1.24 8.615-3.348 4.036-4.989 3.134-11.069.682-16.635-1.914-4.345-6.2-4.793-10.294-4.831L970.04 61h-12.723v25h8.231zM725 61h-36.7v20.887h54.436v8.069h-54.502v23.059h57.569v8.636h-67.454v-69.31h66.316V61H725zm88.946 52l1.49.003c12.209.854 15.819-2.915 15.665-15.649h8.259c2.156 11.538-.59 20.186-9.134 22.84-3.208.996-6.647 1.679-9.992 1.726-13.492.192-27.006.528-40.477-.035-16.457-.687-20.52-7.323-21.6-20.824-.794-9.932-.477-19.993-.064-29.971.398-9.591 6.45-18.237 18.231-18.181 12.916.061 25.834-.681 38.755-.844 3.744-.047 7.566.371 11.233 1.145 7.897 1.669 12.197 7.067 12.669 15.403.13 2.294.02 4.601.02 7.137h-8.519c-.493-2.657-1.043-5.164-1.411-7.698-.777-5.355-4.779-6.885-9.157-6.965-13.323-.244-26.655-.204-39.981-.043-7.568.091-11.915 4.843-11.928 12.47l.001 25.989c.02 9.217 4.264 13.473 13.465 13.491l32.477.005zM853 85V52.299h10v8.31l.012 43.464c.02 7.244 1.771 8.924 9.034 8.926l42.465-.003c6.831-.006 9.482-2.669 9.486-9.529L924 52.293h10v22.321l.058 29.974c.396 13.421-6.628 16.638-16.924 17.185-16.108.856-32.305.574-48.444.097-9.83-.29-15.262-6.325-15.642-16.388C852.797 98.83 853 92.161 853 85zm303.25-9.25l-23.382-23.389c8.283-.732 14.392-1.018 19.841 5.491 7.558 9.027 16.483 16.91 25.146 25.608l15.963-15.953c2.99-3.062 6.224-6.023 8.571-9.548 4.754-7.139 11.451-6.343 19.079-5.648-1.036 1.34-1.612 2.252-2.346 3.011l-33.566 34.751c-1.395 1.471-2.379 3.926-2.444 5.96-.269 8.462-.113 16.938-.113 25.687h-10l-.071-24.888c-.031-1.643-.542-3.654-1.581-4.835-4.804-5.459-9.873-10.686-15.097-16.245zm-102.244-16.894l-.005-6.608h77.774v8.449h-32.523v60.971h-10.101V61c-10.545 0-20.65.067-30.751-.074-1.47-.021-2.926-1.04-4.394-2.07zM1047 60.057v61.631h-9.711V52.309H1047v7.748z" fill="#bc0033"/><path fill="#bb0335" d="M63.397 95.587l11.545-.867-12.37 24.995c-1.493 4.065-2.563 7.69-3.793 11.676-.066 4.507.027 8.653-.165 12.604a151.76 151.76 0 0 1-5.572-9.427l-4.948-9.29c-2.91-6.424 1.386-11.05 3.37-16.389 2.82-5.762 5.256-11.417 11.933-13.302z"/><path fill="#bb0234" d="M80.911 124.825c-.39-.026-.78-.052-1.547-.425.018-1.56.275-2.839.83-3.973l10.441-20.711c4.133-6.997 3.447-14.403 3.535-21.752l.946-.015c2.965 5.33 6.174 10.546 8.777 16.047 1.051 2.221 1.069 5.069 1.054 7.629-.043 7.608-9.242 20.806-15.814 22.693-1.995.573-4.191.448-6.825.483-.819-.099-1.109-.037-1.398.024z"/><path fill="#bcbabd" d="M90.373 99.933l-10.178 20.493c-.555 1.134-.812 2.413-1.123 3.99-.463.119-1.5-.162-1.485-.367.434-5.966-.273-12.422 1.853-17.74 2.052-5.133 1.374-8.623-1.262-13.288.722-4.555 1.322-8.385 2.141-12.156.218.058.643.213.683.566l9.371 18.502z"/><path fill="#91052b" d="M80.961 81.078s-.425-.155-.709-.551l-4.292-7.854-2.732-5.14-3.077-7.68c9.006 1.365 9.498 10.908 15.133 16.091l1.835-13 7.94 14.64c-.154.368-.364.371-1.203.245-1.369.506-2.606 1.044-2.753 1.796-.38 1.936-.277 3.966-.427 7.259l-7.435-10.748-2.281 4.942z"/><path fill="#7f0425" d="M58.9 144.19c-.093-4.146-.187-8.292.252-12.802 2.084.773 3.636 1.91 5.332 3.153l1.56-6.651c1.981 3.425 3.963 6.85 5.959 11.049-.654 3.199-1.322 5.625-2.133 7.738l-4.749-7.576-1.461.239c-.282 4.032-.563 8.063-1.103 11.877-1.059-1.533-1.86-2.848-2.69-4.471-.341-1.058-.654-1.807-.967-2.556z"/><path fill="#e1e1e2" d="M51.183 109.086c-1.703 5.142-5.998 9.768-3.129 16.673l-.99 12.221c-.896-1.466-2.555-2.927-2.563-4.398-.045-8.437.487-16.877.435-25.314-.025-4.156 1.045-7.479 4.696-9.705.735 3.705 1.143 7.114 1.551 10.523z"/><path fill="#ae0332" d="M86.975 62.617c-.437 4.445-1.019 8.564-1.691 13.326-5.635-5.183-6.127-14.726-15.323-16.144-.392.156-.785.114-.785.114 3.341-3.586 7.624-1.838 11.371-1.511 2.191.191 4.195 2.521 6.428 4.215z"/><path fill="#b8b8ba" d="M58.615 143.995c.598.944.91 1.694.977 3.05-.364 4.419-.481 8.231-.599 12.043-2.643-4.122-5.285-8.244-7.685-12.997.764-4.146 1.284-7.661 1.804-11.175l5.503 9.079z"/><path fill="#8d0529" d="M70.012 146.989l2.018-7.689c3.664 6.36 7.316 13.131 10.641 20.286-7.154-.809-9.528-6.593-12.667-11.838l.009-.759z"/><path fill="#ae0332" d="M70.001 148.001c3.141 4.992 5.515 10.776 12.718 11.95.377-.018.326.012.309.304l-.011 1.575c-4.762-.572-9.524-1.144-14.713-2.179-.758-.843-1.09-1.223-1.076-1.785 1.155-3.41 1.964-6.638 2.773-9.866z"/><path fill="#bebdbf" d="M51.464 108.888c-.689-3.212-1.097-6.621-1.528-10.491 3.713-3.533 8.045-3.703 13.004-2.925-6.22 1.999-8.656 7.654-11.476 13.416z"/><path fill="#cac8ca" d="M75.991 73.002l4.043 7.467c-.534 4.168-1.135 7.997-1.907 12.204-1.46-2.07-2.748-4.518-3.786-7.604.717-4.449 1.184-8.258 1.65-12.067z"/><path fill="#ceccce" d="M53.042 134.568c-.45 3.863-.971 7.377-1.796 11.17-1.579-2.163-2.853-4.604-4.155-7.401l1.014-12.201c1.65 2.374 3.258 5.229 4.937 8.432z"/><path fill="#ececec" d="M68.854 60.194c.323-.28.716-.238.906-.185 1.255 2.427 2.319 4.801 3.124 7.774-.8 4.138-1.341 7.677-1.881 11.216-.996-2.103-2.663-4.151-2.843-6.322-.334-4.03.2-8.132.695-12.484z"/><path fill="#6d0420" d="M66.016 127.525l-1.533 7.015-5.172-3.514c.698-3.621 1.768-7.246 3.183-10.944 1.394 2.311 2.444 4.695 3.522 7.442z"/><path fill="#dadadb" d="M71.041 79.346c.501-3.885 1.042-7.424 1.927-11.214 1.217 1.237 2.089 2.724 2.992 4.541-.436 4.138-.902 7.947-1.664 12.042-1.269-1.484-2.242-3.253-3.255-5.369z"/><path fill="#cac8ca" d="M59.147 159.392c-.036-4.115.081-7.927.473-12.038 1.075 1.016 1.876 2.331 2.963 4.111.418.945.551 1.425.614 2.38l-.197 7.165c-1.233-.438-2.466-.877-3.854-1.619z"/><path fill="#dadadb" d="M63.239 161.297c-.196-2.516-.153-4.746.203-7.213 1.356 1.163 2.398 2.564 3.44 3.965l1.092 1.382c-1.435.879-2.966 1.516-4.735 1.866z"/><path fill="#8d0529" d="M83.326 161.827c-.311-.425-.313-.852-.293-1.601.215.319.409.958.293 1.601z"/><path fill="#bcbabd" d="M81.168 124.922c.033-.159.323-.22.704-.141-.088.173-.268.206-.704.141z"/><path fill="#fff" d="M965.056 86h-7.74V61h12.723l31.962.033c4.094.038 8.38.486 10.294 4.831 2.452 5.566 3.354 11.646-.682 16.635-1.706 2.109-5.647 3.263-8.615 3.348-12.475.36-24.966.152-37.942.152z"/><path fill="#7b0626" d="M81.001 81.431c.564-1.661 1.167-2.969 2.241-5.295l7.435 10.748c.149-3.293.047-5.323.427-7.259.147-.751 1.384-1.289 2.438-1.79.541 7.477 1.227 14.883-2.906 21.88-3.374-5.832-6.484-11.882-9.635-18.285z"/><path fill="#9a022b" d="M67.229 157.867c-1.388-1.219-2.43-2.62-3.717-4.259-.378-.718-.51-1.198-.67-1.925l.818-12.343 1.461-.239 4.749 7.576c.139.482.137.65.133 1.072-.81 3.481-1.619 6.709-2.774 10.119z"/></svg>